<?xml version="1.0" encoding="UTF-8"?>
<svg xmlns="http://www.w3.org/2000/svg" xmlns:xlink="http://www.w3.org/1999/xlink" width="720pt" height="720pt" viewBox="0 0 720 720" version="1.1">
<g id="surface1">
<path style=" stroke:none;fill-rule:nonzero;fill:rgb(100%,100%,100%);fill-opacity:1;" d="M 137.152344 675.496094 L 116.773438 665.960938 C 109.585938 662.59375 134.601563 593.945313 138.136719 586.386719 L 199.40625 492.808594 L 331.710938 206.140625 C 335.246094 198.582031 339.757813 193.222656 343.371094 194.914063 L 353.613281 199.707031 C 357.230469 201.398438 356.003906 208.296875 352.46875 215.855469 L 217.144531 501.109375 L 184.558594 608.109375 C 181.019531 615.667969 144.34375 678.859375 137.152344 675.496094 "/>
<path style=" stroke:none;fill-rule:nonzero;fill:rgb(100%,100%,100%);fill-opacity:1;" d="M 311.773438 350.453125 C 308.6875 357.046875 302.046875 360.453125 296.9375 358.0625 C 291.828125 355.675781 290.1875 348.390625 293.269531 341.796875 L 408.394531 95.769531 C 411.480469 89.179688 418.125 85.769531 423.234375 88.160156 C 428.34375 90.550781 429.984375 97.835938 426.898438 104.429688 Z M 273.984375 332.71875 C 270.898438 339.3125 264.253906 342.71875 259.144531 340.328125 C 254.039063 337.9375 252.394531 330.652344 255.480469 324.058594 L 370.605469 78.035156 C 373.691406 71.441406 380.335938 68.035156 385.445313 70.425781 C 390.554688 72.816406 392.195313 80.097656 389.109375 86.695313 Z M 430.179688 33.140625 L 422.195313 29.40625 C 397.140625 17.679688 367.128906 28.894531 355.167969 54.457031 L 226.496094 329.433594 C 214.535156 354.996094 225.152344 385.222656 250.210938 396.949219 L 258.191406 400.683594 C 283.253906 412.410156 313.261719 401.191406 325.222656 375.632813 L 453.894531 100.65625 C 465.855469 75.09375 455.238281 44.867188 430.179688 33.140625 "/>
<path style=" stroke:none;fill-rule:nonzero;fill:rgb(100%,100%,100%);fill-opacity:1;" d="M 575 647.554688 C 558.402344 647.554688 544.945313 634.234375 544.945313 617.804688 C 544.945313 601.375 558.402344 588.054688 575 588.054688 C 591.597656 588.054688 605.054688 601.375 605.054688 617.804688 C 605.054688 634.234375 591.597656 647.554688 575 647.554688 M 613.386719 39.195313 L 613.386719 146.023438 C 613.386719 163.351563 599.066406 177.523438 581.566406 177.523438 L 568.433594 177.523438 C 550.933594 177.523438 536.613281 163.351563 536.613281 146.023438 L 536.613281 39.195313 C 501.003906 54.035156 476 88.90625 476 129.554688 C 476 166.1875 496.308594 198.117188 526.382813 214.9375 L 526.382813 632.679688 C 526.382813 659.148438 548.261719 680.804688 575 680.804688 C 601.738281 680.804688 623.617188 659.148438 623.617188 632.679688 L 623.617188 214.9375 C 653.691406 198.117188 674 166.1875 674 129.554688 C 674 88.90625 648.996094 54.035156 613.386719 39.195313 "/>
</g>
</svg>
