<?xml version="1.0" encoding="UTF-8"?>
<svg xmlns="http://www.w3.org/2000/svg" xmlns:xlink="http://www.w3.org/1999/xlink" width="721pt" height="720pt" viewBox="0 0 721 720" version="1.1">
<g id="surface1">
<path style=" stroke:none;fill-rule:nonzero;fill:rgb(100%,100%,100%);fill-opacity:1;" d="M 138.152344 675.496094 L 117.773438 665.960938 C 110.585938 662.59375 135.601563 593.945313 139.136719 586.386719 L 200.40625 492.808594 L 332.710938 206.140625 C 336.246094 198.582031 340.757813 193.222656 344.371094 194.914063 L 354.613281 199.707031 C 358.230469 201.398438 357.003906 208.296875 353.46875 215.855469 L 218.144531 501.109375 L 185.558594 608.109375 C 182.019531 615.667969 145.34375 678.859375 138.152344 675.496094 "/>
<path style=" stroke:none;fill-rule:nonzero;fill:rgb(100%,100%,100%);fill-opacity:1;" d="M 312.773438 350.453125 C 309.6875 357.046875 303.046875 360.453125 297.9375 358.0625 C 292.828125 355.675781 291.1875 348.390625 294.269531 341.796875 L 409.394531 95.769531 C 412.480469 89.179688 419.125 85.769531 424.234375 88.160156 C 429.34375 90.550781 430.984375 97.835938 427.898438 104.429688 Z M 274.984375 332.71875 C 271.898438 339.3125 265.253906 342.71875 260.144531 340.328125 C 255.039063 337.9375 253.394531 330.652344 256.480469 324.058594 L 371.605469 78.035156 C 374.691406 71.441406 381.335938 68.035156 386.445313 70.425781 C 391.554688 72.816406 393.195313 80.097656 390.109375 86.695313 Z M 431.179688 33.140625 L 423.195313 29.40625 C 398.140625 17.679688 368.128906 28.894531 356.167969 54.457031 L 227.496094 329.433594 C 215.535156 354.996094 226.152344 385.222656 251.210938 396.949219 L 259.191406 400.683594 C 284.253906 412.410156 314.261719 401.191406 326.222656 375.632813 L 454.894531 100.65625 C 466.855469 75.09375 456.238281 44.867188 431.179688 33.140625 "/>
<path style=" stroke:none;fill-rule:nonzero;fill:rgb(100%,100%,100%);fill-opacity:1;" d="M 576 647.554688 C 559.402344 647.554688 545.945313 634.234375 545.945313 617.804688 C 545.945313 601.375 559.402344 588.054688 576 588.054688 C 592.597656 588.054688 606.054688 601.375 606.054688 617.804688 C 606.054688 634.234375 592.597656 647.554688 576 647.554688 M 614.386719 39.195313 L 614.386719 146.023438 C 614.386719 163.351563 600.066406 177.523438 582.566406 177.523438 L 569.433594 177.523438 C 551.933594 177.523438 537.613281 163.351563 537.613281 146.023438 L 537.613281 39.195313 C 502.003906 54.035156 477 88.90625 477 129.554688 C 477 166.1875 497.308594 198.117188 527.382813 214.9375 L 527.382813 632.679688 C 527.382813 659.148438 549.261719 680.804688 576 680.804688 C 602.738281 680.804688 624.617188 659.148438 624.617188 632.679688 L 624.617188 214.9375 C 654.691406 198.117188 675 166.1875 675 129.554688 C 675 88.90625 649.996094 54.035156 614.386719 39.195313 "/>
</g>
</svg>
